# xmcd
#
# Track frame offsets:
#  150
#  21584
#  72836
#  100882
#  138800
#  187579
#  224060
#
# Disc length: 3399 seconds
#
# Revision: 2
# Processed by: cddbd v1.5.1PL2 Copyright (c) Steve Scherf et al.
# Submitted via: Collectorz.com_Music_Collector 6.11
#
DISCID=610d4507
DTITLE=Michael Hill - Electric Storyland [CD2)
DYEAR=2003
DGENRE=Blues
TTITLE0=Something On The Sky
TTITLE1=Bloodlines Trilogy - Why We Play The Blues/Can't Recall A Time/Hard Blues For Hard Times
TTITLE2=Michael Hill - Pete Cummings - Heat On The Highway
TTITLE3=Evil In The Air
TTITLE4=Jack Bruce - Pete Brown - Eric Clapton - Johnson - Chocolate Cream Jam - Sunshine Of Your Love/Crossroads
TTITLE5=Michael Hill - Pete Cummings - New York State Of Blues
TTITLE6=Young Folks' Blues
EXTD=
EXTT0=
EXTT1=
EXTT2=
EXTT3=
EXTT4=
EXTT5=
EXTT6=
PLAYORDER=
